<svg viewBox="0 0 141 36" xmlns="http://www.w3.org/2000/svg" data-logo="logo">
            <g transform="translate(0, 1) rotate(0)" id="logogram"><path fill="#FF7700" d="M15.4992 0H36.5808L21.0816 22.9729H0L15.4992 0Z"></path><path fill="#FFB570" d="M16.4224 25.102L10.4192 34H32.5008L48 11.0271H31.7024L22.2064 25.102H16.4224Z"></path></g>
            <g transform="translate(54, 4)" id="logotype"><path d="M8.94 23.58L8.94 23.58L8.92 23.86Q8.92 24.28 9.25 24.59Q9.57 24.90 9.85 24.90L9.85 24.90Q11.90 24.90 13.48 24.28Q15.06 23.67 15.06 23.05L15.06 23.05Q15.06 22.76 14.49 22.55Q13.91 22.33 12.55 22.02Q11.20 21.70 10.58 21.52Q9.96 21.34 9.61 21.19Q9.25 21.04 8.87 20.76L8.87 20.76Q8.07 20.20 8.07 19.08Q8.07 17.96 8.90 16.86Q9.73 15.75 10.97 14.97Q12.22 14.18 13.66 13.58L13.66 13.58Q16.49 12.41 18.42 12.41L18.42 12.41Q20.32 12.41 20.77 13.23L20.77 13.23Q20.90 13.52 20.90 13.88L20.90 13.88L20.90 13.99Q20.90 14.90 20.52 15.41Q20.13 15.93 19.30 16.34Q18.48 16.75 17.99 16.75Q17.50 16.75 17.37 16.68Q17.25 16.61 17.16 16.50Q17.07 16.39 16.95 16.34Q16.82 16.28 16.82 16.08Q16.82 15.87 16.99 15.66Q17.16 15.45 17.23 15.21L17.23 15.21Q16.10 15.26 14.87 15.73Q13.64 16.20 12.76 16.78Q11.88 17.36 11.30 17.89Q10.72 18.42 10.72 18.67Q10.72 18.92 11.50 19.07L11.50 19.07Q15.04 19.77 16.15 20.28Q17.26 20.80 17.69 21.45Q18.12 22.10 18.12 22.63L18.12 22.63Q18.12 23.72 17.25 24.69Q16.37 25.67 15.09 26.28L15.09 26.28Q12.34 27.63 10.30 27.63Q8.26 27.63 7.48 27.01Q6.70 26.38 6.70 25.53Q6.70 24.68 7.14 23.95Q7.57 23.22 8.26 23.22Q8.94 23.22 8.94 23.58ZM34.97 21.96L34.97 21.96Q35.09 22.74 35.09 23.20Q35.09 23.65 34.92 23.98Q34.76 24.32 34.21 24.92Q33.65 25.53 32.88 26.15L32.88 26.15Q31.00 27.63 29.04 27.63L29.04 27.63Q26.22 27.63 26.22 25.14L26.22 25.14Q26.22 22.97 29.99 16.49L29.99 16.49Q30.13 16.25 30.18 16.15L30.18 16.15Q28.87 17.07 25.15 21.18Q21.43 25.29 20.20 27L20.20 27Q20.10 27.15 19.69 27.34Q19.28 27.53 19.05 27.53Q18.82 27.53 18.55 27.38Q18.29 27.24 18.22 27.24L18.22 27.24Q18.00 27.24 18.00 27.09Q18.00 26.95 18.60 25.52Q19.21 24.09 20.20 21.98L20.20 21.98Q22.92 16.13 28.29 6.77L28.29 6.77Q30.17 3.48 31.22 2.12L31.22 2.12Q31.98 1.14 33.75 1.14L33.75 1.14Q34.13 1.14 34.18 1.37Q34.23 1.59 34.23 1.84Q34.23 2.10 34.13 2.36L34.13 2.36L32.30 5.21Q26.87 13.69 24.12 19.26L24.12 19.26Q26.78 16.01 29.29 14.25L29.29 14.25Q30.85 13.14 31.63 13.14Q32.40 13.14 33.04 13.39Q33.67 13.64 33.67 14.58L33.67 14.58Q33.67 14.92 32.56 17.10L32.56 17.10Q29.23 23.67 29.23 24.39Q29.23 25.12 29.82 25.12L29.82 25.12Q30.69 25.12 32.51 23.43L32.51 23.43Q33.87 22.15 34.23 21.79L34.23 21.79Q34.44 21.63 34.61 21.63L34.61 21.63Q34.93 21.63 34.97 21.96ZM48.16 21.63L48.16 21.63Q48.49 21.63 48.55 22.13Q48.62 22.63 48.62 23.15Q48.62 23.68 48.52 23.89L48.52 23.89Q48.02 24.85 46.35 26.22Q44.67 27.60 43.17 27.60L43.17 27.60Q42.25 27.60 41.46 27.04Q40.68 26.49 40.68 25.10Q40.68 23.72 41.41 22.39L41.41 22.39Q37.17 27.70 34.76 27.70L34.76 27.70Q33.81 27.70 33.22 27.02Q32.63 26.33 32.63 25.61Q32.63 24.88 32.83 24.10Q33.04 23.33 33.27 22.71Q33.50 22.10 33.95 21.19Q34.40 20.28 34.63 19.87Q34.85 19.46 35.33 18.63Q35.82 17.81 36.62 16.40Q37.41 15.00 37.93 14.33Q38.45 13.65 38.95 13.64Q39.44 13.64 39.82 14.05Q40.20 14.46 40.20 14.71Q40.20 14.97 39.05 17.02L39.05 17.02Q35.67 23.14 35.67 24.15L35.67 24.15Q35.67 24.40 35.86 24.40L35.86 24.40Q36.68 24.40 39.94 20.85Q43.20 17.29 43.72 16.29Q44.23 15.29 44.72 14.61Q45.20 13.93 45.44 13.77L45.44 13.77Q46.18 13.29 47.34 13.26L47.34 13.26Q47.53 13.26 47.63 13.28Q47.73 13.29 47.87 13.57Q48.01 13.84 48.01 13.99L48.01 13.99Q47.85 14.47 46.65 16.54Q45.44 18.61 45.31 18.88L45.31 18.88Q43.29 23.05 43.29 24.32L43.29 24.32Q43.29 25.03 43.84 25.03L43.84 25.03Q44.83 24.90 46.23 23.45L46.23 23.45Q46.74 22.92 47.25 22.37Q47.75 21.82 47.87 21.73Q47.99 21.63 48.16 21.63ZM58.48 5.09L59.29 4.99L59.99 5.16Q60.14 5.16 60.26 5.31Q60.38 5.47 60.38 5.60Q60.38 5.74 60.02 6.34Q59.66 6.94 59.18 7.70Q58.69 8.46 58.65 8.53L58.65 8.53Q59.99 8.42 60.54 8.42Q61.10 8.42 61.30 8.50Q61.51 8.58 61.77 8.93Q62.04 9.28 62.26 9.46Q62.48 9.64 62.48 10.00Q62.48 10.35 62.05 10.60Q61.61 10.85 61.11 10.90L61.11 10.90Q57.15 11.29 56.74 11.31L56.74 11.31Q55.36 13.43 52.87 17.92Q50.38 22.40 50.23 23.53L50.23 23.53Q50.16 24.04 50.16 24.37L50.16 24.37Q50.16 25.03 50.86 25.03Q51.56 25.03 52.42 24.50Q53.27 23.96 53.99 23.33L53.99 23.33Q55.90 21.62 56.04 21.62L56.04 21.62Q56.48 21.62 56.48 23.15L56.48 23.15Q56.48 23.99 55.71 24.66L55.71 24.66Q53.99 26.15 52.81 26.90Q51.63 27.65 50.45 27.65L50.45 27.65Q50.19 27.65 49.97 27.60L49.97 27.60Q48.60 27.34 47.96 26.60Q47.32 25.85 47.33 24.59Q47.34 23.33 48.08 21.52Q48.83 19.72 49.96 17.69L49.96 17.69Q51.80 14.37 53.65 11.47L53.65 11.47L53.00 11.55Q51.01 11.77 50.69 11.77L50.69 11.77L50.54 11.77Q50.04 11.77 49.58 11.58Q49.12 11.38 49.12 11.09Q49.12 10.80 49.37 10.53Q49.61 10.25 49.66 10.10L49.66 10.10Q49.78 9.72 50.56 9.26Q51.34 8.80 51.73 8.77Q52.13 8.75 52.49 8.73Q52.86 8.71 53.31 8.70Q53.77 8.68 54.01 8.66L54.01 8.66L55.54 8.59Q56.98 6.44 57.52 5.83Q58.06 5.21 58.14 5.15Q58.23 5.09 58.48 5.09L58.48 5.09ZM66.00 5.09L66.81 4.99L67.51 5.16Q67.66 5.16 67.78 5.31Q67.90 5.47 67.90 5.60Q67.90 5.74 67.54 6.34Q67.18 6.94 66.69 7.70Q66.21 8.46 66.17 8.53L66.17 8.53Q67.51 8.42 68.06 8.42Q68.62 8.42 68.82 8.50Q69.03 8.58 69.29 8.93Q69.56 9.28 69.78 9.46Q70.00 9.64 70.00 10.00Q70.00 10.35 69.57 10.60Q69.13 10.85 68.63 10.90L68.63 10.90Q64.67 11.29 64.26 11.31L64.26 11.31Q62.88 13.43 60.39 17.92Q57.90 22.40 57.75 23.53L57.75 23.53Q57.68 24.04 57.68 24.37L57.68 24.37Q57.68 25.03 58.38 25.03Q59.08 25.03 59.94 24.50Q60.79 23.96 61.51 23.33L61.51 23.33Q63.42 21.62 63.56 21.62L63.56 21.62Q64.00 21.62 64.00 23.15L64.00 23.15Q64.00 23.99 63.23 24.66L63.23 24.66Q61.51 26.15 60.33 26.90Q59.15 27.65 57.97 27.65L57.97 27.65Q57.71 27.65 57.49 27.60L57.49 27.60Q56.12 27.34 55.48 26.60Q54.84 25.85 54.85 24.59Q54.86 23.33 55.60 21.52Q56.35 19.72 57.47 17.69L57.47 17.69Q59.32 14.37 61.17 11.47L61.17 11.47L60.52 11.55Q58.53 11.77 58.21 11.77L58.21 11.77L58.06 11.77Q57.56 11.77 57.10 11.58Q56.64 11.38 56.64 11.09Q56.64 10.80 56.89 10.53Q57.13 10.25 57.18 10.10L57.18 10.10Q57.30 9.72 58.08 9.26Q58.86 8.80 59.25 8.77Q59.65 8.75 60.01 8.73Q60.38 8.71 60.83 8.70Q61.29 8.68 61.52 8.66L61.52 8.66L63.06 8.59Q64.50 6.44 65.04 5.83Q65.58 5.21 65.66 5.15Q65.75 5.09 66.00 5.09L66.00 5.09ZM76.73 1.35Q77.56 1.35 78.18 1.84Q78.80 2.32 78.80 3.28Q78.80 4.24 77.74 6.28Q76.68 8.32 75.20 10.45Q73.71 12.58 71.83 14.97L71.83 14.97Q68.86 18.76 66.12 21.79L66.12 21.79Q66.10 21.99 65.98 22.55Q65.85 23.10 65.85 23.67Q65.85 24.23 66.37 24.68Q66.89 25.14 67.66 25.14Q68.43 25.14 69.31 24.59Q70.19 24.04 70.84 23.38L70.84 23.38Q72.55 21.62 72.96 21.62Q73.37 21.62 73.37 22.86L73.37 22.86L73.37 23.21Q73.37 23.87 73.13 24.18L73.13 24.18Q71.69 25.94 69.90 26.80Q68.10 27.67 66.50 27.67Q64.89 27.67 64.05 26.68Q63.22 25.70 63.22 23.99L63.22 23.99Q63.22 20.66 65.00 16.16Q66.79 11.65 69.03 8.49L69.03 8.49Q74.07 1.35 76.73 1.35L76.73 1.35ZM75.97 4.19L75.97 4.19Q75.97 3.93 75.79 3.93L75.79 3.93Q75.20 3.93 72.65 7.35Q70.10 10.76 68.97 12.80Q67.83 14.83 66.82 17.91L66.82 17.91Q68.84 15.52 72.40 10.45Q75.97 5.38 75.97 4.19ZM77.90 16.61L77.18 17.69Q81.21 13.11 84.05 13.11L84.05 13.11Q84.75 13.11 85.20 13.52Q85.66 13.94 85.66 14.61Q85.66 15.28 84.71 16.84Q83.76 18.40 82.96 19.48L82.96 19.48Q82.53 20.03 81.99 20.03Q81.45 20.03 81.15 19.63Q80.85 19.24 80.85 18.71L80.85 18.71Q80.85 17.53 82.12 16.05L82.12 16.05L82.08 16.01Q81.52 16.06 79.29 18.23Q77.06 20.40 75.50 22.12Q73.93 23.84 72.10 26.30L72.10 26.30Q71.57 27.03 71.21 27.03Q70.84 27.03 70.23 26.80Q69.63 26.57 69.50 26.47Q69.37 26.37 69.37 26.13Q69.37 25.89 69.51 25.57Q69.64 25.26 70.01 24.68Q70.38 24.09 71.12 22.80Q71.86 21.50 73.44 18.87Q75.01 16.23 75.32 15.69L75.32 15.69Q75.97 14.56 76.38 14.05L76.38 14.05Q77.15 13.07 78.97 13.07L78.97 13.07Q79.38 13.07 79.38 13.58L79.38 13.58Q79.38 14.39 77.90 16.61L77.90 16.61Z" fill="#000000"></path></g>
            
          </svg>